<?xml version="1.0" encoding="UTF-8" standalone="no"?>
<svg width="145px" height="35px" viewBox="0 0 145 35" version="1.1" xmlns="http://www.w3.org/2000/svg" xmlns:xlink="http://www.w3.org/1999/xlink" xmlns:sketch="http://www.bohemiancoding.com/sketch/ns">
    <!-- Generator: Sketch 3.2.2 (9983) - http://www.bohemiancoding.com/sketch -->
    <title>Logo</title>
    <desc>Created with Sketch.</desc>
    <defs>
        <path id="path-1" d="M0.0281553398,0.0776712329 L144.956359,0.0776712329 L144.956359,34.9712329 L0.0281553398,34.9712329 L0.0281553398,0.0776712329 Z"></path>
    </defs>
    <g id="Page-1" stroke="none" stroke-width="1" fill="none" fill-rule="evenodd" sketch:type="MSPage">
        <g id="Startsida-2" sketch:type="MSArtboardGroup" transform="translate(-340.000000, -45.000000)">
            <g id="Logo" sketch:type="MSLayerGroup" transform="translate(340.000000, 45.000000)">
                <path d="M50.0343851,26.6920548 C46.3436893,26.6920548 43.5671036,26.1569863 40.5075566,24.9933562 C38.691068,24.2070548 38.4639482,22.3530137 39.4812945,21.4967123 C40.3930583,20.6989041 42.5952751,20.2180137 44.2996117,20.8676712 C46.7087702,21.7853425 47.666521,22.8717808 49.4923948,22.8717808 C51.1554369,22.8717808 52.2070388,22.5644521 52.2070388,21.8045205 C52.2070388,20.7693836 51.3736408,20.2180137 47.4300162,19.4926027 C42.9148382,18.7091781 39.6994984,16.4749315 39.6994984,13.5392466 C39.6994984,10.120274 45.0025566,8.24561644 49.9907443,8.24561644 C51.6950809,8.24561644 53.5509871,8.49445205 54.9080744,8.78260274 C55.9188511,8.98924658 56.6147573,9.69547945 56.6147573,10.4817808 L56.6147573,12.1219863 C56.6147573,13.0209589 54.8667799,14.1260959 53.358123,13.1336301 C52.636877,12.6594521 51.1554369,12.1780822 50.3356472,12.1780822 C48.4154531,12.1780822 47.1386084,12.5606849 47.1386084,13.5934247 C47.1386084,14.7172603 48.6632201,15.2149315 52.5702427,16.0012329 C57.1933495,17.1250685 59.9380259,18.4838356 59.9380259,21.6894521 C59.9380259,25.1060274 54.2422006,26.6920548 50.0343851,26.6920548" id="Fill-1" fill="#FFFFFF" sketch:type="MSShapeGroup"></path>
                <path d="M82.0704693,26.2883562 L77.6491424,26.2883562 C75.8786408,26.2883562 75.0194337,26.0630137 75.0194337,24.3427397 C75.0194337,23.1388356 75.2423301,23.1743151 75.9588835,22.7778082 C76.5698544,22.435 76.9053722,22.090274 76.9053722,21.5341096 L76.9053722,13.8417808 C76.9053722,12.8066438 75.423932,12.0088356 73.5797573,12.0088356 C71.7674919,12.0088356 70.3226537,12.8325342 70.3226537,13.8417808 L70.3226537,24.7464384 C70.3226537,25.734589 69.4085437,26.2883562 67.7896117,26.2883562 L65.1852427,26.2883562 C63.7474434,26.2883562 62.6906796,25.734589 62.6906796,24.7253425 L62.6906796,12.100411 C62.6906796,10.4602055 64.8680259,10.000411 66.7079773,10.3264384 L67.5944013,10.5378767 C68.4005825,10.6855479 68.7956958,10.575274 69.0228155,10.310137 C70.3479935,8.91157534 72.9251456,8.24513699 75.9588835,8.24513699 C81.5974595,8.24513699 84.4937055,11.5140411 84.4937055,14.6841781 L84.4937055,24.7464384 C84.4937055,25.734589 83.6917476,26.2883562 82.0704693,26.2883562" id="Fill-2" fill="#FFFFFF" sketch:type="MSShapeGroup"></path>
                <g id="Group-7">
                    <mask id="mask-2" sketch:name="Clip 4" fill="white">
                        <use xlink:href="#path-1"></use>
                    </mask>
                    <g id="Clip-4"></g>
                    <path d="M103.564256,14.6055479 C103.564256,13.0593151 101.609806,11.8741096 99.3705178,11.8741096 C97.0139159,11.8741096 95.0735437,13.0593151 95.0735437,14.6055479 L95.0735437,20.6576712 C95.0735437,22.1828082 97.0552104,23.3728082 99.3705178,23.3728082 C101.655793,23.3728082 103.564256,22.1828082 103.564256,20.6576712 L103.564256,14.6055479 L103.564256,14.6055479 Z M99.3705178,26.9231507 C92.7906149,26.9231507 87.5401133,23.4854795 87.5401133,19.3036986 L87.5401133,15.7509589 C87.5401133,11.4143151 92.7906149,8.15212329 99.3705178,8.15212329 C105.695615,8.15212329 111.124903,11.4143151 111.124903,15.7509589 L111.124903,19.3036986 C111.124903,23.4854795 105.838269,26.9231507 99.3705178,26.9231507 L99.3705178,26.9231507 Z" id="Fill-3" fill="#FFFFFF" sketch:type="MSShapeGroup" mask="url(#mask-2)"></path>
                    <path d="M139.019337,25.3380822 C138.718074,26.1171918 138.006214,26.3094521 136.915194,26.3094521 L134.91945,26.3094521 C134.10623,26.3094521 133.132524,25.9671233 132.785744,25.3380822 L128.757184,17.5287671 C128.451699,16.9889041 128.245227,17.0123973 127.95335,17.5287671 L123.578479,25.3759589 C123.144417,26.1569863 122.570049,26.3094521 121.486068,26.3094521 L119.478592,26.3094521 C118.730129,26.3094521 117.537751,25.9671233 117.328932,25.2771918 L111.929207,10.3810959 C111.502184,9.16280822 112.845663,8.76150685 114.534045,8.76150685 L116.75034,8.76150685 C118.273074,8.76150685 119.354709,8.95184932 119.673803,10.1907534 L121.486068,16.9889041 C121.596343,17.4276027 122.092346,17.5076712 122.344806,17.0473973 L124.768042,11.4157534 C125.12843,10.6860274 125.670421,10.3269178 126.621602,10.2305479 L128.840243,10.0008904 C130.54411,9.71657534 131.277087,10.4232877 131.639822,11.2584932 L134.600356,17.2190411 C134.754272,17.5992466 135.144693,17.5426712 135.296262,17.2003425 L136.665081,13.290411 C136.885631,12.8071233 136.775356,12.5985616 136.152654,12.2557534 C135.431408,11.8731507 135.222589,11.8942466 135.222589,10.6860274 C135.222589,8.98684932 136.111359,8.76150685 137.859337,8.76150685 L142.549078,8.76150685 C143.782282,8.76150685 145.445324,9.17910959 144.820744,10.6860274 L139.019337,25.3380822" id="Fill-5" fill="#FFFFFF" sketch:type="MSShapeGroup" mask="url(#mask-2)"></path>
                    <path d="M29.3566343,17.5388356 L27.0230259,13.5215068 L32.3631553,10.4496575 L30.4612621,7.15726027 L25.0892233,10.2291096 L22.7513916,6.2069863 L18.0841748,6.2069863 L18.0841748,0.0776712329 L14.2785113,0.0776712329 L14.2785113,6.2069863 L9.59580906,6.2069863 L7.26220065,10.2291096 L1.9061165,7.15726027 L0,10.4496575 L5.33731392,13.5239041 L3.02247573,17.5388356 L5.33731392,21.5537671 L0,24.6256164 L1.9061165,27.9199315 L7.26220065,24.8509589 L9.59580906,28.8706849 L14.2785113,28.8706849 L14.2785113,35 L18.0841748,35 L18.0841748,28.8706849 L22.7513916,28.8706849 L25.0892233,24.8509589 L30.4612621,27.9199315 L32.3631553,24.6256164 L27.0230259,21.5561644 L29.3566343,17.5388356 L29.3566343,17.5388356 Z M24.1432039,17.5388356 L19.7791262,24.3063014 L12.5859061,24.3063014 L8.20822006,17.5388356 L12.5859061,10.7708904 L19.7791262,10.7708904 L24.1432039,17.5388356 L24.1432039,17.5388356 Z" id="Fill-6" fill="#FFFFFF" sketch:type="MSShapeGroup" mask="url(#mask-2)"></path>
                </g>
            </g>
        </g>
    </g>
</svg>